<svg data-logo="logo" xmlns="http://www.w3.org/2000/svg" viewBox="0 0 166 41">
    <g id="logogram" transform="translate(0, 20.5) rotate(0) "></g>
    <g id="logotype" transform="translate(0, 1)"><path fill="black" d="M2.45 32L2.45 7.50L7.21 7.50L7.21 32L2.45 32ZM14.11 32L10.50 28.36L10.50 18.21L14.11 14.57L21.04 14.57L23.10 16.35L23.10 7.01L27.72 7.01L27.72 32L23.38 32L23.38 29.30L20.69 32L14.11 32ZM16.45 28.08L20.27 28.08L23.10 25.17L23.10 20.63L20.72 18.49L16.45 18.49L15.12 19.85L15.12 26.71L16.45 28.08ZM34.20 32L30.66 28.43L30.66 18.21L34.27 14.57L44.10 14.57L47.74 18.21L47.74 24.82L35.28 24.82L35.28 27.06L36.40 28.22L42.11 28.22L43.16 27.13L43.16 26.23L47.70 26.23L47.70 28.50L44.24 32L34.20 32ZM35.28 21.60L43.12 21.60L43.12 19.57L41.93 18.35L36.47 18.35L35.28 19.57L35.28 21.60ZM53.20 32L49.98 28.78L49.98 24.79L53.20 21.57L62.06 21.57L62.06 19.36L60.97 18.28L55.72 18.28L54.67 19.36L54.67 20.34L50.12 20.34L50.12 18.35L53.87 14.57L62.86 14.57L66.61 18.35L66.61 32L62.44 32L62.44 29.52L59.85 32L53.20 32ZM55.41 28.43L59.54 28.43L62.06 26.02L62.06 24.86L55.48 24.86L54.53 25.80L54.53 27.55L55.41 28.43ZM72.63 32L68.84 28.22L68.84 24.72L73.53 24.72L73.53 26.79L74.69 27.94L81.94 27.94L83.13 26.75L83.13 22.69L81.97 21.53L72.69 21.53L68.91 17.75L68.91 11.28L72.69 7.50L83.75 7.50L87.53 11.28L87.53 14.81L82.84 14.81L82.84 12.71L81.69 11.56L74.76 11.56L73.61 12.71L73.61 16.32L74.76 17.47L84.03 17.47L87.81 21.25L87.81 28.15L83.97 32L72.63 32ZM90.58 39.42L90.58 14.57L94.85 14.57L94.85 17.13L97.41 14.57L104.20 14.57L107.80 18.21L107.80 28.36L104.20 32L97.44 32L95.20 30.14L95.20 39.42L90.58 39.42ZM97.97 28.08L101.96 28.08L103.18 26.86L103.18 19.71L101.96 18.49L98 18.49L95.20 21.32L95.20 25.59L97.97 28.08ZM113.44 32L110.22 28.78L110.22 24.79L113.44 21.57L122.29 21.57L122.29 19.36L121.21 18.28L115.96 18.28L114.91 19.36L114.91 20.34L110.36 20.34L110.36 18.35L114.10 14.57L123.10 14.57L126.84 18.35L126.84 32L122.68 32L122.68 29.52L120.09 32L113.44 32ZM115.64 28.43L119.77 28.43L122.29 26.02L122.29 24.86L115.71 24.86L114.77 25.80L114.77 27.55L115.64 28.43ZM133.14 32L129.61 28.43L129.61 18.14L133.14 14.57L142.73 14.57L146.34 18.21L146.34 21.43L141.72 21.43L141.72 19.71L140.49 18.49L135.45 18.49L134.23 19.71L134.23 26.86L135.45 28.08L140.49 28.08L141.72 26.86L141.72 25.14L146.34 25.14L146.34 28.36L142.73 32L133.14 32ZM151.76 32L148.23 28.43L148.23 18.21L151.83 14.57L161.67 14.57L165.31 18.21L165.31 24.82L152.85 24.82L152.85 27.06L153.97 28.22L159.67 28.22L160.72 27.13L160.72 26.23L165.27 26.23L165.27 28.50L161.81 32L151.76 32ZM152.85 21.60L160.69 21.60L160.69 19.57L159.50 18.35L154.04 18.35L152.85 19.57L152.85 21.60Z"/></g>
</svg>
    