<svg xmlns="http://www.w3.org/2000/svg" version="1.1" xmlns:xlink="http://www.w3.org/1999/xlink" width="1000" height="1000"><g clip-path="url(#SvgjsClipPath1128)"><rect width="1000" height="1000" fill="#ffffff"></rect><g transform="matrix(0.875,0,0,0.875,150,150)"><svg xmlns="http://www.w3.org/2000/svg" version="1.1" xmlns:xlink="http://www.w3.org/1999/xlink" width="800" height="800"><svg version="1.1" id="Layer_1" xmlns="http://www.w3.org/2000/svg" xmlns:xlink="http://www.w3.org/1999/xlink" x="0px" y="0px" viewBox="0 0 800 800" enable-background="new 0 0 800 800" xml:space="preserve">
<g>
	<path fill="#F16235" d="M334.5,99.463c17.647-17.398,41.006-26.983,65.778-26.983l1.327,0.009
		c49.988,0.702,91.406,41.907,92.353,91.859c0.512,27.069-10.685,53.023-30.724,71.214c-13.679,12.411-21.52,30.185-21.52,48.756
		v15.197c0,5.444-4.43,9.879-9.874,9.879h-24.22c0.127-0.65,0.204-1.341,0.204-2.088v-39.801c0-6.296-4.779-9.113-9.512-9.113
		s-9.503,2.817-9.503,9.113v39.801c0,0.747,0.077,1.438,0.204,2.088h-20.283c-5.445,0-9.874-4.434-9.874-9.879v-15.197
		c0-18.526-7.895-36.341-21.66-48.883c-19.45-17.729-30.602-42.972-30.602-69.261C306.593,140.894,316.504,117.205,334.5,99.463z"></path>
	<path fill="#58C7DE" d="M70.758,543.845c4.868-21.345,18.39-29.66,34.786-32.785c12.828,25.915,25.654,51.831,38.482,77.746
		c2.997,6.056,13.022,6.056,16.02,0c12.9-26.062,25.799-52.124,38.699-78.186c15.995,2.933,29.478,10.564,33.849,29.358
		c2.503,10.76-2.347,20.986-5.281,31.438c-3.79,13.505-7.58,27.009-11.37,40.514c-2.264,8.067-4.736,15.638-5.48,23.913
		c-0.883,9.821,2.181,22.772-4.38,31.141c-3.087,3.937-7.804,5.438-12.939,5.963h-13.434v0.066
		c-1.066-0.033-2.124-0.065-3.125-0.065c-11.938,0-11.958,18.553,0,18.553c3.759,0,7.585,0.058,11.376-0.001h16.354
		c3.048,0,5.621,2.575,5.621,5.621v24.917c0,3.046-2.573,5.619-5.621,5.619H99.756c-3.044,0-5.617-2.573-5.617-5.619v-24.917
		c0-0.294,0.024-0.583,0.067-0.866c0.426-2.71,2.808-4.755,5.55-4.755h20.527c1.259,0.002,2.517,0.001,3.77,0.001
		c11.938,0,11.958-18.553,0-18.553c-0.312,0-0.625,0.006-0.938,0.009v-0.01h-11.574c-6.63-0.466-12.498-2.472-16.053-9.85
		c-4.258-8.838-0.639-20.992-1.876-30.346c-0.931-7.041-3.569-14.005-5.482-20.821C82.387,591.467,69.769,565.254,70.758,543.845z"></path>
	<path d="M79.984,674.382c0.981,1.969,2.094,3.681,3.293,5.224c-3.827,3.594-6.564,8.366-7.41,13.815l9.168,1.422l-9.172-1.397
		c-0.181,1.198-0.276,2.426-0.276,3.676v24.917c0,13.328,10.844,24.172,24.17,24.172h104.56c13.33,0,24.174-10.844,24.174-24.172
		v-24.917c0-6.944-2.984-13.168-7.688-17.581c1.397-1.809,2.661-3.875,3.754-6.267c7.219-15.807,3.097-34.389,7.77-51.04
		c8.483-30.228,29.471-69.985,12.922-100.467c-10.822-19.933-28.254-27.353-47.57-29.973c13.822-12.492,22.573-30.496,22.573-50.551
		c0-37.613-30.602-68.215-68.215-68.215c-37.613,0-68.215,30.602-68.215,68.215c0,20.206,8.881,38.333,22.885,50.835
		c-0.448,0.251-0.873,0.542-1.284,0.857c-25.082,3.839-46.167,14.962-52.849,47.212c-0.1,0.485-0.115,0.94-0.148,1.401
		c-0.062,0.354-0.156,0.686-0.183,1.065c-2.047,28.631,15.932,58.935,21.519,86.802C76.7,644.071,73.02,660.4,79.984,674.382z
		 M152.036,563.259c-8.904-17.989-17.807-35.978-26.711-53.967c8.189-0.145,16.514,0.168,24.405,0.168
		c0.596,0,1.236-0.018,1.845-0.023c0.156,0.001,0.306,0.023,0.461,0.023c0.259,0,0.51-0.036,0.769-0.039
		c8.008-0.115,17.023-0.582,26.109-0.465C169.955,527.057,160.995,545.158,152.036,563.259z M102.374,441.242
		c0-27.383,22.276-49.662,49.662-49.662c27.386,0,49.662,22.279,49.662,49.662c0,26.594-21.024,48.309-47.317,49.546
		c-1.158,0.024-2.314,0.044-3.461,0.062C124.053,490.249,102.374,468.252,102.374,441.242z M70.758,543.845
		c4.868-21.345,18.39-29.66,34.786-32.785c12.828,25.915,25.654,51.831,38.482,77.746c2.997,6.056,13.022,6.056,16.02,0
		c12.9-26.062,25.799-52.124,38.699-78.186c15.995,2.933,29.478,10.564,33.849,29.358c2.503,10.76-2.347,20.986-5.281,31.438
		c-3.79,13.505-7.58,27.009-11.37,40.514c-2.264,8.067-4.736,15.638-5.48,23.913c-0.883,9.821,2.181,22.772-4.38,31.141
		c-3.087,3.937-7.804,5.438-12.939,5.963h-13.434v0.066c-1.066-0.033-2.124-0.065-3.125-0.065c-11.938,0-11.958,18.553,0,18.553
		c3.759,0,7.585,0.058,11.376-0.001h16.354c3.048,0,5.621,2.575,5.621,5.621v24.917c0,3.046-2.573,5.619-5.621,5.619H99.756
		c-3.044,0-5.617-2.573-5.617-5.619v-24.917c0-0.294,0.024-0.583,0.067-0.866c0.426-2.71,2.808-4.755,5.55-4.755h20.527
		c1.259,0.002,2.517,0.001,3.77,0.001c11.938,0,11.958-18.553,0-18.553c-0.312,0-0.625,0.006-0.938,0.009v-0.01h-11.574
		c-6.63-0.466-12.498-2.472-16.053-9.85c-4.258-8.838-0.639-20.992-1.876-30.346c-0.931-7.041-3.569-14.005-5.482-20.821
		C82.387,591.467,69.769,565.254,70.758,543.845z"></path>
	<ellipse transform="matrix(0.999 -0.0453 0.0453 0.999 -30.7603 7.5267)" cx="150.632" cy="682.224" rx="8.677" ry="8.677"></ellipse>
	<path d="M603.196,492.078c-0.448,0.25-0.872,0.542-1.283,0.856c-25.082,3.839-46.167,14.962-52.849,47.212
		c-0.101,0.485-0.116,0.94-0.149,1.401c-0.062,0.354-0.156,0.686-0.183,1.065c-2.046,28.631,15.932,58.935,21.519,86.802
		c2.939,14.657-0.741,30.986,6.223,44.967c0.981,1.97,2.095,3.682,3.294,5.225c-3.82,3.588-6.551,8.349-7.402,13.785l-0.003,0
		c-0.001,0.005-0.001,0.011-0.001,0.016c-0.001,0.005-0.003,0.009-0.003,0.013l0.002,0c-0.188,1.207-0.288,2.442-0.288,3.7v24.917
		c0,13.328,10.844,24.172,24.174,24.172h104.556c13.331,0,24.174-10.844,24.174-24.172v-24.917c0-6.944-2.983-13.167-7.687-17.58
		c1.397-1.809,2.662-3.875,3.754-6.267c7.219-15.807,3.098-34.389,7.77-51.04c8.484-30.228,29.471-69.985,12.923-100.467
		c-10.822-19.932-28.253-27.353-47.568-29.973c13.822-12.493,22.573-30.496,22.573-50.551c0-37.613-30.602-68.215-68.215-68.215
		c-37.618,0-68.219,30.602-68.219,68.215C580.309,461.449,589.19,479.576,603.196,492.078z M648.528,509.46
		c0.26,0,0.511-0.036,0.77-0.039c8.007-0.115,17.021-0.582,26.106-0.465c-8.96,18.101-17.919,36.202-26.878,54.303
		c-8.904-17.989-17.807-35.978-26.711-53.967c8.189-0.145,16.514,0.168,24.405,0.168c0.596,0,1.238-0.018,1.847-0.023
		C648.222,509.437,648.372,509.46,648.528,509.46z M729.084,539.978c2.503,10.76-2.347,20.986-5.281,31.438
		c-3.79,13.505-7.58,27.009-11.369,40.514c-2.264,8.067-4.736,15.638-5.48,23.913c-0.883,9.821,2.182,22.772-4.379,31.141
		c-3.087,3.937-7.804,5.438-12.939,5.963h-13.431v0.066c-1.067-0.033-2.127-0.065-3.128-0.065c-11.938,0-11.958,18.553,0,18.553
		c3.758,0,7.585,0.058,11.376-0.001h16.352c3.048,0,5.621,2.575,5.621,5.621v24.917c0,3.046-2.573,5.619-5.621,5.619H596.248
		c-3.048,0-5.621-2.573-5.621-5.619v-24.917c0-0.281,0.018-0.557,0.063-0.827l-9.163-1.452l9.168,1.422
		c0.421-2.716,2.808-4.765,5.553-4.765h20.525c1.259,0.002,2.516,0.001,3.77,0.001c11.938,0,11.958-18.553,0-18.553
		c-0.312,0-0.627,0.006-0.94,0.009v-0.01h-11.572c-6.63-0.466-12.498-2.472-16.053-9.85c-4.258-8.838-0.64-20.992-1.876-30.346
		c-0.931-7.041-3.569-14.005-5.482-20.821c-5.742-20.462-18.359-46.675-17.371-68.084c4.868-21.346,18.39-29.662,34.787-32.786
		c12.827,25.915,25.654,51.831,38.481,77.746c2.998,6.056,13.023,6.056,16.021,0c12.899-26.062,25.799-52.124,38.699-78.186
		C711.23,513.553,724.714,521.184,729.084,539.978z M648.528,391.58c27.386,0,49.662,22.279,49.662,49.662
		c0,26.594-21.023,48.308-47.315,49.545c-1.159,0.024-2.316,0.044-3.463,0.062c-26.868-0.601-48.55-22.599-48.55-49.608
		C598.862,413.859,621.143,391.58,648.528,391.58z"></path>
	<circle cx="647.123" cy="682.224" r="8.677"></circle>
	<path d="M243.265,370.561c14.908-14.908,29.817-29.817,44.725-44.726c8.454-8.453-4.661-21.576-13.119-13.119
		c-14.908,14.909-29.817,29.817-44.726,44.726C221.692,365.896,234.808,379.018,243.265,370.561z"></path>
	<path d="M512.572,325.836c14.909,14.908,29.817,29.817,44.726,44.726c8.453,8.454,21.576-4.662,13.119-13.119
		c-14.908-14.908-29.817-29.817-44.726-44.726C517.237,304.263,504.115,317.378,512.572,325.836z"></path>
	<path d="M324.603,249.241c9.892,9.018,15.568,21.801,15.568,35.077v15.197c0,8.837,4.013,17.045,11.011,22.516l0.802,0.625v35.888
		c0,14.735,11.985,26.724,26.72,26.724h43.162c14.735,0,26.72-11.99,26.72-26.724v-35.888l0.802-0.625
		c6.998-5.476,11.011-13.684,11.011-22.516v-15.206c0-13.303,5.612-26.031,15.391-34.909c24.043-21.823,37.473-52.95,36.848-85.405
		c-0.548-29.179-12.334-56.669-33.179-77.401c-20.849-20.741-48.403-32.386-77.577-32.789c-30.547-0.489-58.92,11.057-80.504,32.345
		c-21.588,21.289-33.473,49.707-33.473,80.024C287.904,197.704,301.28,227.984,324.603,249.241z M429.896,358.544
		c0,4.435-3.601,8.04-8.031,8.04h-43.162c-4.43,0-8.031-3.605-8.031-8.04v-30.461h59.224V358.544z M334.5,99.463
		c17.647-17.398,41.006-26.983,65.778-26.983l1.327,0.009c49.988,0.702,91.406,41.907,92.353,91.859
		c0.512,27.069-10.685,53.023-30.724,71.214c-13.679,12.411-21.52,30.185-21.52,48.756v15.197c0,5.444-4.43,9.879-9.874,9.879
		h-24.22c0.127-0.65,0.204-1.341,0.204-2.088v-39.801c0-6.296-4.779-9.113-9.512-9.113s-9.503,2.817-9.503,9.113v39.801
		c0,0.747,0.077,1.438,0.204,2.088h-20.283c-5.445,0-9.874-4.434-9.874-9.879v-15.197c0-18.526-7.895-36.341-21.66-48.883
		c-19.45-17.729-30.602-42.972-30.602-69.261C306.593,140.894,316.504,117.205,334.5,99.463z"></path>
	<path d="M398.314,200.983c-7.026,0-12.963-5.004-12.963-10.926c0-5.021-4.083-9.106-9.104-9.106c-5.02,0-9.103,4.085-9.103,9.106
		c0,12.093,8.158,23.066,20.301,27.303l1.63,0.57l0.232,1.71c0.6,4.495,4.476,7.883,9.006,7.883c4.531,0,8.407-3.391,9.012-7.885
		l0.232-1.71l1.629-0.568c12.144-4.237,20.303-15.21,20.303-27.303c0-16.065-13.982-29.136-31.171-29.136
		c-7.026,0-12.967-5.004-12.967-10.926s5.937-10.926,12.963-10.926c7.031,0,12.972,5.004,12.972,10.926
		c0,5.02,4.083,9.104,9.104,9.104c5.017,0,9.1-4.083,9.1-9.104c0-12.066-8.129-23.026-20.235-27.275l-1.748-0.615l-0.122-1.849
		c-0.317-4.765-4.303-8.496-9.07-8.496c-4.767,0-8.753,3.731-9.07,8.496l-0.122,1.849l-1.748,0.615
		c-12.102,4.25-20.23,15.212-20.23,27.275c0,16.065,13.98,29.135,31.17,29.135c7.031,0,12.972,5.004,12.972,10.926
		C411.286,195.979,405.345,200.983,398.314,200.983z"></path>
	<path d="M493.315,475.569c-62.022,0-124.045,0-186.068,0c-11.938,0-11.958,18.553,0,18.553c62.022,0,124.045,0,186.068,0
		C505.253,494.122,505.273,475.569,493.315,475.569z"></path>
	<path fill="#58C7DE" d="M729.084,539.978c2.503,10.76-2.347,20.986-5.281,31.438c-3.79,13.505-7.58,27.009-11.369,40.514
		c-2.264,8.067-4.736,15.638-5.48,23.913c-0.883,9.821,2.182,22.772-4.379,31.141c-3.087,3.937-7.804,5.438-12.939,5.963h-13.431
		v0.066c-1.067-0.033-2.127-0.065-3.128-0.065c-11.938,0-11.958,18.553,0,18.553c3.758,0,7.585,0.058,11.376-0.001h16.352
		c3.048,0,5.621,2.575,5.621,5.621v24.917c0,3.046-2.573,5.619-5.621,5.619H596.248c-3.048,0-5.621-2.573-5.621-5.619v-24.917
		c0-0.281,0.018-0.557,0.063-0.827l-9.163-1.452l9.168,1.422c0.421-2.716,2.808-4.765,5.553-4.765h20.525
		c1.259,0.002,2.516,0.001,3.77,0.001c11.938,0,11.958-18.553,0-18.553c-0.312,0-0.627,0.006-0.94,0.009v-0.01h-11.572
		c-6.63-0.466-12.498-2.472-16.053-9.85c-4.258-8.838-0.64-20.992-1.876-30.346c-0.931-7.041-3.569-14.005-5.482-20.821
		c-5.742-20.462-18.359-46.675-17.371-68.084c4.868-21.346,18.39-29.662,34.787-32.786c12.827,25.915,25.654,51.831,38.481,77.746
		c2.998,6.056,13.023,6.056,16.021,0c12.899-26.062,25.799-52.124,38.699-78.186C711.23,513.553,724.714,521.184,729.084,539.978z"></path>
	<path fill="#58C7DE" d="M429.896,358.544c0,4.435-3.601,8.04-8.031,8.04h-43.162c-4.43,0-8.031-3.605-8.031-8.04v-30.461h59.224
		V358.544z"></path>
</g>
</svg></svg></g></g><defs><clipPath id="SvgjsClipPath1128"><rect width="1000" height="1000" x="0" y="0" rx="250" ry="250"></rect></clipPath></defs></svg>